<?xml version="1.0" encoding="UTF-8" standalone="no"?>
<!-- Generator: Adobe Illustrator 19.0.0, SVG Export Plug-In . SVG Version: 6.00 Build 0)  -->

<svg
   xmlns:dc="http://purl.org/dc/elements/1.1/"
   xmlns:cc="http://creativecommons.org/ns#"
   xmlns:rdf="http://www.w3.org/1999/02/22-rdf-syntax-ns#"
   xmlns:svg="http://www.w3.org/2000/svg"
   xmlns="http://www.w3.org/2000/svg"
   xmlns:sodipodi="http://sodipodi.sourceforge.net/DTD/sodipodi-0.dtd"
   xmlns:inkscape="http://www.inkscape.org/namespaces/inkscape"
   version="1.1"
   id="Layer_1"
   x="0px"
   y="0px"
   viewBox="0 0 297.24501 512.00204"
   xml:space="preserve"
   sodipodi:docname="lbna.svg"
   inkscape:version="0.92.2 2405546, 2018-03-11"
   width="297.245"
   height="512.00201"><metadata
   id="metadata67"><rdf:RDF><cc:Work
       rdf:about=""><dc:format>image/svg+xml</dc:format><dc:type
         rdf:resource="http://purl.org/dc/dcmitype/StillImage" /><dc:title></dc:title></cc:Work></rdf:RDF></metadata><defs
   id="defs65" /><sodipodi:namedview
   pagecolor="#ffffff"
   bordercolor="#666666"
   borderopacity="1"
   objecttolerance="10"
   gridtolerance="10"
   guidetolerance="10"
   inkscape:pageopacity="0"
   inkscape:pageshadow="2"
   inkscape:window-width="1680"
   inkscape:window-height="998"
   id="namedview63"
   showgrid="false"
   inkscape:zoom="0.92187324"
   inkscape:cx="131.84039"
   inkscape:cy="250.01544"
   inkscape:window-x="0"
   inkscape:window-y="0"
   inkscape:window-maximized="1"
   inkscape:current-layer="Layer_1" />
<path
   id="SVGCleanerId_0"
   style="fill:#ffc843"
   d="m 208.386,331.543 c 0,-48.588 88.859,-76.217 88.859,-182.919 C 297.245,66.542 230.706,0 148.623,0 66.54,0 0,66.542 0,148.624 0,255.326 88.861,282.955 88.861,331.543 Z"
   inkscape:connector-curvature="0" />
<g
   id="g4"
   transform="translate(-107.378)">
	<path
   id="SVGCleanerId_0_1_"
   style="fill:#a1a1a1;fill-opacity:1"
   d="m 315.764,331.543 c 0,-48.588 88.859,-76.217 88.859,-182.919 C 404.623,66.542 338.084,0 256.001,0 173.918,0 107.378,66.542 107.378,148.624 c 0,106.702 88.861,134.331 88.861,182.919 z"
   inkscape:connector-curvature="0" />
</g>
<g
   id="g10"
   transform="translate(-107.378)">
	<path
   style="fill:#6a6a6a;fill-opacity:1"
   d="m 227.215,339.787 c -4.554,0 -8.244,-3.691 -8.244,-8.244 0,-42.72 -12.297,-61.258 -25.316,-80.884 -12.092,-18.227 -24.595,-37.074 -24.595,-73.777 0,-4.553 3.69,-8.244 8.244,-8.244 4.554,0 8.244,3.691 8.244,8.244 0,31.731 10.124,46.991 21.845,64.662 13.156,19.83 28.065,42.307 28.065,89.999 0.001,4.553 -3.689,8.244 -8.243,8.244 z"
   id="path6"
   inkscape:connector-curvature="0" />
	<path
   style="fill:#6b6a69;fill-opacity:1"
   d="m 284.785,339.787 c -4.554,0 -8.244,-3.691 -8.244,-8.244 0,-47.692 14.909,-70.168 28.065,-89.999 11.721,-17.67 21.845,-32.931 21.845,-64.662 0,-4.553 3.69,-8.244 8.244,-8.244 4.554,0 8.244,3.691 8.244,8.244 0,36.703 -12.503,55.55 -24.595,73.777 -13.02,19.626 -25.316,38.164 -25.316,80.884 0.002,4.553 -3.688,8.244 -8.243,8.244 z"
   id="path8"
   inkscape:connector-curvature="0" />
</g>

<path
   style="opacity:0.1;enable-background:new"
   d="m 83.499,310.851 c 3.37,6.653 5.362,13.439 5.362,20.692 h 119.526 c 0,-7.254 1.992,-14.041 5.362,-20.692 z"
   id="path14"
   inkscape:connector-curvature="0" />
<circle
   style="fill:#5c6670"
   cx="148.62599"
   cy="491.73801"
   r="20.264"
   id="circle16" />
<path
   style="opacity:0.1;enable-background:new"
   d="m 148.623,471.473 c -11.194,0 -20.264,9.072 -20.264,20.264 0,0.897 0.078,1.774 0.191,2.64 6.329,2.027 13.071,3.131 20.072,3.131 7.001,0 13.743,-1.105 20.072,-3.131 0.112,-0.866 0.191,-1.743 0.191,-2.64 0,-11.192 -9.07,-20.264 -20.262,-20.264 z"
   id="path18"
   inkscape:connector-curvature="0" />
<circle
   style="fill:#333e48"
   cx="148.62599"
   cy="431.741"
   r="59.997002"
   id="circle20" />
<path
   style="opacity:0.1;enable-background:new"
   d="m 148.623,371.745 c -33.136,0 -59.996,26.862 -59.996,59.996 0,4.357 0.476,8.601 1.359,12.694 H 207.26 c 0.884,-4.094 1.359,-8.337 1.359,-12.694 -0.001,-33.135 -26.863,-59.996 -59.996,-59.996 z"
   id="path22"
   inkscape:connector-curvature="0" />
<path
   style="fill:#5c6670"
   d="m 233.705,411.442 c 0,11.164 -9.135,20.299 -20.298,20.299 H 83.838 c -11.164,0 -20.299,-9.134 -20.299,-20.299 v -63.054 c 0,-11.164 9.135,-20.299 20.299,-20.299 h 129.569 c 11.163,0 20.298,9.135 20.298,20.299 z"
   id="path24"
   inkscape:connector-curvature="0" />
<g
   id="g30"
   transform="translate(-107.378)">
	<rect
   x="170.922"
   y="352.23199"
   style="fill:#333e48"
   width="170.164"
   height="16.489"
   id="rect26" />
	<rect
   x="170.922"
   y="391.112"
   style="fill:#333e48"
   width="170.164"
   height="16.489"
   id="rect28" />
</g>
<g
   id="g32"
   transform="translate(-107.378)">
</g>
<g
   id="g34"
   transform="translate(-107.378)">
</g>
<g
   id="g36"
   transform="translate(-107.378)">
</g>
<g
   id="g38"
   transform="translate(-107.378)">
</g>
<g
   id="g40"
   transform="translate(-107.378)">
</g>
<g
   id="g42"
   transform="translate(-107.378)">
</g>
<g
   id="g44"
   transform="translate(-107.378)">
</g>
<g
   id="g46"
   transform="translate(-107.378)">
</g>
<g
   id="g48"
   transform="translate(-107.378)">
</g>
<g
   id="g50"
   transform="translate(-107.378)">
</g>
<g
   id="g52"
   transform="translate(-107.378)">
</g>
<g
   id="g54"
   transform="translate(-107.378)">
</g>
<g
   id="g56"
   transform="translate(-107.378)">
</g>
<g
   id="g58"
   transform="translate(-107.378)">
</g>
<g
   id="g60"
   transform="translate(-107.378)">
</g>
<text
   xml:space="preserve"
   style="font-style:normal;font-variant:normal;font-weight:normal;font-stretch:normal;font-size:40px;line-height:1.25;font-family:'Fira Sans';-inkscape-font-specification:'Fira Sans';letter-spacing:0px;word-spacing:0px;fill:#000000;fill-opacity:1;stroke:none"
   x="104.55849"
   y="219.1201"
   id="text844"><tspan
     sodipodi:role="line"
     id="tspan842"
     x="104.55849"
     y="219.1201"
     style="font-size:192px;fill:#ffffff;fill-opacity:1">?</tspan></text>
</svg>